<mxfile host="app.diagrams.net" agent="Mozilla/5.0 (X11; Linux x86_64; rv:135.0) Gecko/20100101 Firefox/135.0" version="26.2.14">
  <diagram name="Страница — 1" id="LGNVK6gHgUcG6dm_x2ef">
    <mxGraphModel dx="949" dy="667" grid="1" gridSize="10" guides="1" tooltips="1" connect="1" arrows="1" fold="1" page="1" pageScale="1" pageWidth="827" pageHeight="1169" math="0" shadow="0">
      <root>
        <mxCell id="0" />
        <mxCell id="1" parent="0" />
        <mxCell id="21LTSwsVJJV8hgcxb2NV-20" value="" style="group" vertex="1" connectable="0" parent="1">
          <mxGeometry x="200" y="220" width="300" height="160" as="geometry" />
        </mxCell>
        <mxCell id="21LTSwsVJJV8hgcxb2NV-6" value="" style="rounded=0;whiteSpace=wrap;html=1;" vertex="1" parent="21LTSwsVJJV8hgcxb2NV-20">
          <mxGeometry width="280" height="160" as="geometry" />
        </mxCell>
        <mxCell id="21LTSwsVJJV8hgcxb2NV-18" value="ОП" style="text;html=1;align=center;verticalAlign=middle;whiteSpace=wrap;rounded=0;" vertex="1" parent="21LTSwsVJJV8hgcxb2NV-20">
          <mxGeometry width="36" height="30" as="geometry" />
        </mxCell>
        <mxCell id="21LTSwsVJJV8hgcxb2NV-21" value="&lt;div&gt;РАП&lt;/div&gt;" style="rounded=0;whiteSpace=wrap;html=1;" vertex="1" parent="21LTSwsVJJV8hgcxb2NV-20">
          <mxGeometry x="20" y="30" width="40" height="90" as="geometry" />
        </mxCell>
        <mxCell id="21LTSwsVJJV8hgcxb2NV-24" value="&lt;div&gt;РЧП&lt;/div&gt;" style="rounded=0;whiteSpace=wrap;html=1;" vertex="1" parent="21LTSwsVJJV8hgcxb2NV-20">
          <mxGeometry x="220" y="30" width="40" height="90" as="geometry" />
        </mxCell>
        <mxCell id="21LTSwsVJJV8hgcxb2NV-25" value="ЗМ" style="rounded=0;whiteSpace=wrap;html=1;" vertex="1" parent="21LTSwsVJJV8hgcxb2NV-20">
          <mxGeometry x="80" y="30" width="120" height="90" as="geometry" />
        </mxCell>
        <mxCell id="21LTSwsVJJV8hgcxb2NV-11" value="СчК" style="rounded=0;whiteSpace=wrap;html=1;" vertex="1" parent="1">
          <mxGeometry x="220" y="420" width="40" height="30" as="geometry" />
        </mxCell>
        <mxCell id="21LTSwsVJJV8hgcxb2NV-15" style="edgeStyle=orthogonalEdgeStyle;rounded=0;orthogonalLoop=1;jettySize=auto;html=1;entryX=0.5;entryY=1;entryDx=0;entryDy=0;" edge="1" parent="1" source="21LTSwsVJJV8hgcxb2NV-14" target="21LTSwsVJJV8hgcxb2NV-11">
          <mxGeometry relative="1" as="geometry" />
        </mxCell>
        <mxCell id="21LTSwsVJJV8hgcxb2NV-14" value="+n" style="text;html=1;align=center;verticalAlign=middle;whiteSpace=wrap;rounded=0;" vertex="1" parent="1">
          <mxGeometry x="230" y="470" width="20" height="10" as="geometry" />
        </mxCell>
        <mxCell id="21LTSwsVJJV8hgcxb2NV-31" value="" style="group" vertex="1" connectable="0" parent="1">
          <mxGeometry x="420" y="400" width="180" height="30" as="geometry" />
        </mxCell>
        <mxCell id="21LTSwsVJJV8hgcxb2NV-26" value="" style="rounded=0;whiteSpace=wrap;html=1;" vertex="1" parent="21LTSwsVJJV8hgcxb2NV-31">
          <mxGeometry width="150" height="30" as="geometry" />
        </mxCell>
        <mxCell id="21LTSwsVJJV8hgcxb2NV-27" value="КОП" style="rounded=0;whiteSpace=wrap;html=1;" vertex="1" parent="21LTSwsVJJV8hgcxb2NV-31">
          <mxGeometry width="61.76470588235294" height="30" as="geometry" />
        </mxCell>
        <mxCell id="21LTSwsVJJV8hgcxb2NV-29" value="R1" style="rounded=0;whiteSpace=wrap;html=1;" vertex="1" parent="21LTSwsVJJV8hgcxb2NV-31">
          <mxGeometry x="61.76" width="58.24" height="30" as="geometry" />
        </mxCell>
        <mxCell id="21LTSwsVJJV8hgcxb2NV-30" value="R2" style="rounded=0;whiteSpace=wrap;html=1;" vertex="1" parent="21LTSwsVJJV8hgcxb2NV-31">
          <mxGeometry x="120" width="60" height="30" as="geometry" />
        </mxCell>
        <mxCell id="21LTSwsVJJV8hgcxb2NV-33" value="" style="endArrow=none;html=1;rounded=0;entryX=0.5;entryY=1;entryDx=0;entryDy=0;" edge="1" parent="1" target="21LTSwsVJJV8hgcxb2NV-24">
          <mxGeometry width="50" height="50" relative="1" as="geometry">
            <mxPoint x="440" y="400" as="sourcePoint" />
            <mxPoint x="490" y="390" as="targetPoint" />
          </mxGeometry>
        </mxCell>
        <mxCell id="21LTSwsVJJV8hgcxb2NV-34" value="" style="endArrow=none;html=1;rounded=0;entryX=0.5;entryY=1;entryDx=0;entryDy=0;exitX=0.5;exitY=0;exitDx=0;exitDy=0;" edge="1" parent="1" source="21LTSwsVJJV8hgcxb2NV-11" target="21LTSwsVJJV8hgcxb2NV-21">
          <mxGeometry width="50" height="50" relative="1" as="geometry">
            <mxPoint x="220" y="390" as="sourcePoint" />
            <mxPoint x="270" y="340" as="targetPoint" />
          </mxGeometry>
        </mxCell>
        <mxCell id="21LTSwsVJJV8hgcxb2NV-35" value="&lt;div&gt;Дш&lt;/div&gt;&lt;div&gt;БУУ&lt;/div&gt;" style="text;html=1;align=center;verticalAlign=middle;whiteSpace=wrap;rounded=0;" vertex="1" parent="1">
          <mxGeometry x="435.88" y="450" width="30" height="30" as="geometry" />
        </mxCell>
        <mxCell id="21LTSwsVJJV8hgcxb2NV-37" style="edgeStyle=orthogonalEdgeStyle;rounded=0;orthogonalLoop=1;jettySize=auto;html=1;entryX=0.5;entryY=0;entryDx=0;entryDy=0;" edge="1" parent="1" source="21LTSwsVJJV8hgcxb2NV-27" target="21LTSwsVJJV8hgcxb2NV-35">
          <mxGeometry relative="1" as="geometry" />
        </mxCell>
        <mxCell id="21LTSwsVJJV8hgcxb2NV-51" value="Чт" style="ellipse;whiteSpace=wrap;html=1;aspect=fixed;" vertex="1" parent="1">
          <mxGeometry x="150" y="220" width="25" height="25" as="geometry" />
        </mxCell>
        <mxCell id="21LTSwsVJJV8hgcxb2NV-56" value="" style="endArrow=none;html=1;rounded=0;entryX=1;entryY=0.5;entryDx=0;entryDy=0;exitX=0.5;exitY=1;exitDx=0;exitDy=0;" edge="1" parent="1" source="21LTSwsVJJV8hgcxb2NV-29" target="21LTSwsVJJV8hgcxb2NV-57">
          <mxGeometry width="50" height="50" relative="1" as="geometry">
            <mxPoint x="460" y="585" as="sourcePoint" />
            <mxPoint x="510" y="535" as="targetPoint" />
            <Array as="points">
              <mxPoint x="510" y="510" />
            </Array>
          </mxGeometry>
        </mxCell>
        <mxCell id="21LTSwsVJJV8hgcxb2NV-57" value="РАРП" style="rounded=0;whiteSpace=wrap;html=1;" vertex="1" parent="1">
          <mxGeometry x="420" y="495" width="52" height="30" as="geometry" />
        </mxCell>
        <mxCell id="21LTSwsVJJV8hgcxb2NV-60" value="" style="group" vertex="1" connectable="0" parent="1">
          <mxGeometry x="150" y="495" width="150" height="150" as="geometry" />
        </mxCell>
        <mxCell id="21LTSwsVJJV8hgcxb2NV-50" style="edgeStyle=orthogonalEdgeStyle;rounded=0;orthogonalLoop=1;jettySize=auto;html=1;entryX=0;entryY=0.25;entryDx=0;entryDy=0;" edge="1" parent="21LTSwsVJJV8hgcxb2NV-60" source="21LTSwsVJJV8hgcxb2NV-46" target="21LTSwsVJJV8hgcxb2NV-40">
          <mxGeometry relative="1" as="geometry" />
        </mxCell>
        <mxCell id="21LTSwsVJJV8hgcxb2NV-46" value="Чт" style="ellipse;whiteSpace=wrap;html=1;aspect=fixed;" vertex="1" parent="21LTSwsVJJV8hgcxb2NV-60">
          <mxGeometry width="25" height="25" as="geometry" />
        </mxCell>
        <mxCell id="21LTSwsVJJV8hgcxb2NV-59" value="" style="group" vertex="1" connectable="0" parent="21LTSwsVJJV8hgcxb2NV-60">
          <mxGeometry x="50" width="100" height="150" as="geometry" />
        </mxCell>
        <mxCell id="21LTSwsVJJV8hgcxb2NV-39" value="" style="rounded=0;whiteSpace=wrap;html=1;" vertex="1" parent="21LTSwsVJJV8hgcxb2NV-59">
          <mxGeometry width="100" height="150" as="geometry" />
        </mxCell>
        <mxCell id="21LTSwsVJJV8hgcxb2NV-40" value="РОНы" style="rounded=0;whiteSpace=wrap;html=1;" vertex="1" parent="21LTSwsVJJV8hgcxb2NV-59">
          <mxGeometry width="100" height="50" as="geometry" />
        </mxCell>
        <mxCell id="21LTSwsVJJV8hgcxb2NV-41" value="" style="rounded=0;whiteSpace=wrap;html=1;" vertex="1" parent="21LTSwsVJJV8hgcxb2NV-59">
          <mxGeometry y="50" width="100" height="20" as="geometry" />
        </mxCell>
        <mxCell id="21LTSwsVJJV8hgcxb2NV-42" value="" style="rounded=0;whiteSpace=wrap;html=1;" vertex="1" parent="21LTSwsVJJV8hgcxb2NV-59">
          <mxGeometry y="70" width="100" height="20" as="geometry" />
        </mxCell>
        <mxCell id="21LTSwsVJJV8hgcxb2NV-43" value="" style="rounded=0;whiteSpace=wrap;html=1;" vertex="1" parent="21LTSwsVJJV8hgcxb2NV-59">
          <mxGeometry y="90" width="100" height="20" as="geometry" />
        </mxCell>
        <mxCell id="21LTSwsVJJV8hgcxb2NV-44" value="" style="rounded=0;whiteSpace=wrap;html=1;" vertex="1" parent="21LTSwsVJJV8hgcxb2NV-59">
          <mxGeometry y="110" width="100" height="20" as="geometry" />
        </mxCell>
        <mxCell id="21LTSwsVJJV8hgcxb2NV-61" value="РЧРП" style="rounded=0;whiteSpace=wrap;html=1;" vertex="1" parent="1">
          <mxGeometry x="422" y="540" width="52" height="30" as="geometry" />
        </mxCell>
        <mxCell id="21LTSwsVJJV8hgcxb2NV-62" value="" style="endArrow=none;html=1;rounded=0;exitX=0.5;exitY=1;exitDx=0;exitDy=0;" edge="1" parent="1" source="21LTSwsVJJV8hgcxb2NV-30">
          <mxGeometry width="50" height="50" relative="1" as="geometry">
            <mxPoint x="511" y="445" as="sourcePoint" />
            <mxPoint x="495" y="510" as="targetPoint" />
            <Array as="points">
              <mxPoint x="570" y="510" />
            </Array>
          </mxGeometry>
        </mxCell>
        <mxCell id="21LTSwsVJJV8hgcxb2NV-84" value="" style="group" vertex="1" connectable="0" parent="1">
          <mxGeometry x="660" y="420" width="122" height="50" as="geometry" />
        </mxCell>
        <mxCell id="21LTSwsVJJV8hgcxb2NV-76" value="" style="shape=parallelogram;perimeter=parallelogramPerimeter;whiteSpace=wrap;html=1;fixedSize=1;rotation=0;size=30;flipH=1;" vertex="1" parent="21LTSwsVJJV8hgcxb2NV-84">
          <mxGeometry width="79.3" height="50" as="geometry" />
        </mxCell>
        <mxCell id="21LTSwsVJJV8hgcxb2NV-81" value="" style="shape=parallelogram;perimeter=parallelogramPerimeter;whiteSpace=wrap;html=1;fixedSize=1;rotation=0;size=30;flipH=0;" vertex="1" parent="21LTSwsVJJV8hgcxb2NV-84">
          <mxGeometry x="42.699999999999996" width="79.3" height="50" as="geometry" />
        </mxCell>
        <mxCell id="21LTSwsVJJV8hgcxb2NV-82" value="" style="shape=parallelogram;perimeter=parallelogramPerimeter;whiteSpace=wrap;html=1;fixedSize=1;rotation=0;size=30;flipH=1;strokeColor=none;" vertex="1" parent="21LTSwsVJJV8hgcxb2NV-84">
          <mxGeometry width="79.3" height="50" as="geometry" />
        </mxCell>
        <mxCell id="21LTSwsVJJV8hgcxb2NV-83" value="" style="shape=parallelogram;perimeter=parallelogramPerimeter;whiteSpace=wrap;html=1;fixedSize=1;rotation=0;size=30;flipH=0;strokeColor=none;" vertex="1" parent="21LTSwsVJJV8hgcxb2NV-84">
          <mxGeometry x="42.699999999999996" width="79.3" height="50" as="geometry" />
        </mxCell>
        <mxCell id="21LTSwsVJJV8hgcxb2NV-89" value="АЛУ" style="text;html=1;align=center;verticalAlign=middle;whiteSpace=wrap;rounded=0;" vertex="1" parent="21LTSwsVJJV8hgcxb2NV-84">
          <mxGeometry x="30" y="20" width="61.5" height="30" as="geometry" />
        </mxCell>
        <mxCell id="21LTSwsVJJV8hgcxb2NV-86" value="Р1" style="rounded=0;whiteSpace=wrap;html=1;" vertex="1" parent="1">
          <mxGeometry x="660" y="365" width="52" height="30" as="geometry" />
        </mxCell>
        <mxCell id="21LTSwsVJJV8hgcxb2NV-87" value="Р2" style="rounded=0;whiteSpace=wrap;html=1;" vertex="1" parent="1">
          <mxGeometry x="730" y="365" width="52" height="30" as="geometry" />
        </mxCell>
        <mxCell id="21LTSwsVJJV8hgcxb2NV-92" style="edgeStyle=none;rounded=0;orthogonalLoop=1;jettySize=auto;html=1;entryX=0.672;entryY=0;entryDx=0;entryDy=0;entryPerimeter=0;" edge="1" parent="1" source="21LTSwsVJJV8hgcxb2NV-86" target="21LTSwsVJJV8hgcxb2NV-82">
          <mxGeometry relative="1" as="geometry" />
        </mxCell>
        <mxCell id="21LTSwsVJJV8hgcxb2NV-94" style="edgeStyle=none;rounded=0;orthogonalLoop=1;jettySize=auto;html=1;entryX=0.672;entryY=0;entryDx=0;entryDy=0;entryPerimeter=0;" edge="1" parent="1" source="21LTSwsVJJV8hgcxb2NV-87" target="21LTSwsVJJV8hgcxb2NV-83">
          <mxGeometry relative="1" as="geometry" />
        </mxCell>
        <mxCell id="21LTSwsVJJV8hgcxb2NV-97" value="РС" style="rounded=0;whiteSpace=wrap;html=1;" vertex="1" parent="1">
          <mxGeometry x="695" y="495" width="52" height="30" as="geometry" />
        </mxCell>
        <mxCell id="21LTSwsVJJV8hgcxb2NV-99" style="edgeStyle=none;rounded=0;orthogonalLoop=1;jettySize=auto;html=1;entryX=0.5;entryY=0;entryDx=0;entryDy=0;" edge="1" parent="1" source="21LTSwsVJJV8hgcxb2NV-89" target="21LTSwsVJJV8hgcxb2NV-97">
          <mxGeometry relative="1" as="geometry" />
        </mxCell>
        <mxCell id="21LTSwsVJJV8hgcxb2NV-100" value="" style="endArrow=none;html=1;rounded=0;exitX=0.481;exitY=0.995;exitDx=0;exitDy=0;entryX=1;entryY=0.5;entryDx=0;entryDy=0;exitPerimeter=0;" edge="1" parent="1" source="21LTSwsVJJV8hgcxb2NV-97" target="21LTSwsVJJV8hgcxb2NV-61">
          <mxGeometry width="50" height="50" relative="1" as="geometry">
            <mxPoint x="580" y="780" as="sourcePoint" />
            <mxPoint x="473" y="564" as="targetPoint" />
            <Array as="points">
              <mxPoint x="720" y="555" />
            </Array>
          </mxGeometry>
        </mxCell>
        <mxCell id="21LTSwsVJJV8hgcxb2NV-101" value="" style="endArrow=none;html=1;rounded=0;exitX=0;exitY=0.5;exitDx=0;exitDy=0;entryX=1.011;entryY=0.314;entryDx=0;entryDy=0;entryPerimeter=0;" edge="1" parent="1" source="21LTSwsVJJV8hgcxb2NV-57" target="21LTSwsVJJV8hgcxb2NV-40">
          <mxGeometry width="50" height="50" relative="1" as="geometry">
            <mxPoint x="580" y="440" as="sourcePoint" />
            <mxPoint x="360" y="490" as="targetPoint" />
            <Array as="points" />
          </mxGeometry>
        </mxCell>
        <mxCell id="21LTSwsVJJV8hgcxb2NV-103" value="" style="endArrow=none;html=1;rounded=0;exitX=0;exitY=0.5;exitDx=0;exitDy=0;entryX=1;entryY=0.526;entryDx=0;entryDy=0;entryPerimeter=0;" edge="1" parent="1" source="21LTSwsVJJV8hgcxb2NV-61" target="21LTSwsVJJV8hgcxb2NV-41">
          <mxGeometry width="50" height="50" relative="1" as="geometry">
            <mxPoint x="420" y="554.5" as="sourcePoint" />
            <mxPoint x="301" y="555.5" as="targetPoint" />
            <Array as="points" />
          </mxGeometry>
        </mxCell>
        <mxCell id="21LTSwsVJJV8hgcxb2NV-104" value="РК" style="text;html=1;align=center;verticalAlign=middle;whiteSpace=wrap;rounded=0;" vertex="1" parent="1">
          <mxGeometry x="600" y="400" width="30" height="30" as="geometry" />
        </mxCell>
        <mxCell id="21LTSwsVJJV8hgcxb2NV-106" value="" style="endArrow=none;html=1;rounded=0;exitX=1;exitY=0.25;exitDx=0;exitDy=0;entryX=0.25;entryY=0;entryDx=0;entryDy=0;" edge="1" parent="1" source="21LTSwsVJJV8hgcxb2NV-24" target="21LTSwsVJJV8hgcxb2NV-86">
          <mxGeometry width="50" height="50" relative="1" as="geometry">
            <mxPoint x="550" y="310" as="sourcePoint" />
            <mxPoint x="670" y="270" as="targetPoint" />
            <Array as="points">
              <mxPoint x="673" y="273" />
            </Array>
          </mxGeometry>
        </mxCell>
        <mxCell id="21LTSwsVJJV8hgcxb2NV-107" value="" style="endArrow=none;html=1;rounded=0;exitX=1;exitY=0.25;exitDx=0;exitDy=0;entryX=0.75;entryY=0;entryDx=0;entryDy=0;" edge="1" parent="1" source="21LTSwsVJJV8hgcxb2NV-24" target="21LTSwsVJJV8hgcxb2NV-87">
          <mxGeometry width="50" height="50" relative="1" as="geometry">
            <mxPoint x="680" y="275" as="sourcePoint" />
            <mxPoint x="893" y="400" as="targetPoint" />
            <Array as="points">
              <mxPoint x="770" y="273" />
            </Array>
          </mxGeometry>
        </mxCell>
        <mxCell id="21LTSwsVJJV8hgcxb2NV-108" value="" style="endArrow=none;html=1;rounded=0;entryX=1;entryY=0.5;entryDx=0;entryDy=0;" edge="1" parent="1" target="21LTSwsVJJV8hgcxb2NV-97">
          <mxGeometry width="50" height="50" relative="1" as="geometry">
            <mxPoint x="460" y="260" as="sourcePoint" />
            <mxPoint x="690" y="500" as="targetPoint" />
            <Array as="points">
              <mxPoint x="790" y="260" />
              <mxPoint x="790" y="510" />
            </Array>
          </mxGeometry>
        </mxCell>
        <mxCell id="21LTSwsVJJV8hgcxb2NV-111" value="" style="endArrow=none;html=1;rounded=0;exitX=0;exitY=0.25;exitDx=0;exitDy=0;entryX=0.25;entryY=1;entryDx=0;entryDy=0;" edge="1" parent="1" source="21LTSwsVJJV8hgcxb2NV-61" target="21LTSwsVJJV8hgcxb2NV-21">
          <mxGeometry width="50" height="50" relative="1" as="geometry">
            <mxPoint x="360" y="400" as="sourcePoint" />
            <mxPoint x="240" y="400" as="targetPoint" />
            <Array as="points">
              <mxPoint x="320" y="548" />
              <mxPoint x="320" y="400" />
              <mxPoint x="230" y="400" />
            </Array>
          </mxGeometry>
        </mxCell>
        <mxCell id="21LTSwsVJJV8hgcxb2NV-113" value="" style="endArrow=none;html=1;rounded=0;entryX=0.25;entryY=1;entryDx=0;entryDy=0;exitX=0.5;exitY=0;exitDx=0;exitDy=0;" edge="1" parent="1" source="21LTSwsVJJV8hgcxb2NV-29">
          <mxGeometry width="50" height="50" relative="1" as="geometry">
            <mxPoint x="570" y="350" as="sourcePoint" />
            <mxPoint x="250" y="341" as="targetPoint" />
            <Array as="points">
              <mxPoint x="511" y="390" />
              <mxPoint x="410" y="390" />
              <mxPoint x="250" y="390" />
            </Array>
          </mxGeometry>
        </mxCell>
        <mxCell id="21LTSwsVJJV8hgcxb2NV-116" value="Зп" style="ellipse;whiteSpace=wrap;html=1;aspect=fixed;" vertex="1" parent="1">
          <mxGeometry x="150" y="250" width="25" height="25" as="geometry" />
        </mxCell>
        <mxCell id="21LTSwsVJJV8hgcxb2NV-119" style="edgeStyle=orthogonalEdgeStyle;rounded=0;orthogonalLoop=1;jettySize=auto;html=1;entryX=0;entryY=0.266;entryDx=0;entryDy=0;entryPerimeter=0;" edge="1" parent="1" source="21LTSwsVJJV8hgcxb2NV-116" target="21LTSwsVJJV8hgcxb2NV-6">
          <mxGeometry relative="1" as="geometry" />
        </mxCell>
        <mxCell id="21LTSwsVJJV8hgcxb2NV-120" style="edgeStyle=orthogonalEdgeStyle;rounded=0;orthogonalLoop=1;jettySize=auto;html=1;entryX=0;entryY=0.417;entryDx=0;entryDy=0;entryPerimeter=0;" edge="1" parent="1" source="21LTSwsVJJV8hgcxb2NV-51" target="21LTSwsVJJV8hgcxb2NV-18">
          <mxGeometry relative="1" as="geometry" />
        </mxCell>
      </root>
    </mxGraphModel>
  </diagram>
</mxfile>
